<svg width="55" height="55" viewBox="0 0 55 55" fill="none" xmlns="http://www.w3.org/2000/svg">
<path d="M27.6736 20.1599C23.7974 20.1599 20.6341 23.3231 20.6341 27.1994C20.6341 31.0756 23.7974 34.2389 27.6736 34.2389C31.5498 34.2389 34.7131 31.0756 34.7131 27.1994C34.7131 23.3231 31.5498 20.1599 27.6736 20.1599ZM48.7868 27.1994C48.7868 24.2843 48.8132 21.3956 48.6495 18.4858C48.4858 15.106 47.7148 12.1064 45.2433 9.63493C42.7665 7.15817 39.7722 6.39243 36.3924 6.22872C33.4773 6.06501 30.5887 6.09141 27.6789 6.09141C24.7638 6.09141 21.8751 6.06501 18.9653 6.22872C15.5855 6.39243 12.5859 7.16345 10.1144 9.63493C7.63766 12.1117 6.87192 15.106 6.70821 18.4858C6.5445 21.4009 6.57091 24.2896 6.57091 27.1994C6.57091 30.1092 6.5445 33.0031 6.70821 35.9129C6.87192 39.2927 7.64294 42.2923 10.1144 44.7638C12.5912 47.2406 15.5855 48.0063 18.9653 48.17C21.8804 48.3337 24.7691 48.3073 27.6789 48.3073C30.5939 48.3073 33.4826 48.3337 36.3924 48.17C39.7722 48.0063 42.7718 47.2353 45.2433 44.7638C47.7201 42.287 48.4858 39.2927 48.6495 35.9129C48.8185 33.0031 48.7868 30.1144 48.7868 27.1994ZM27.6736 38.0306C21.6797 38.0306 16.8424 33.1932 16.8424 27.1994C16.8424 21.2055 21.6797 16.3681 27.6736 16.3681C33.6674 16.3681 38.5048 21.2055 38.5048 27.1994C38.5048 33.1932 33.6674 38.0306 27.6736 38.0306ZM38.9484 18.4541C37.5489 18.4541 36.4188 17.324 36.4188 15.9245C36.4188 14.5251 37.5489 13.395 38.9484 13.395C40.3479 13.395 41.478 14.5251 41.478 15.9245C41.4784 16.2568 41.4132 16.586 41.2863 16.8931C41.1593 17.2001 40.973 17.4792 40.738 17.7141C40.503 17.9491 40.224 18.1354 39.9169 18.2624C39.6098 18.3894 39.2807 18.4545 38.9484 18.4541Z" fill="white" fill-opacity="0.95"/>
</svg>
