<svg width="55" height="55" viewBox="0 0 55 55" fill="none" xmlns="http://www.w3.org/2000/svg">
<g clip-path="url(#clip0_90_1085)">
<path d="M0 4.03439C0 1.89497 1.77778 0.161133 3.97127 0.161133H50.1056C52.2991 0.161133 54.0769 1.89497 54.0769 4.03439V50.3648C54.0769 52.5042 52.2991 54.238 50.1056 54.238H3.97127C1.77778 54.238 0 52.5042 0 50.3648V4.03439ZM16.7064 45.4303V21.0112H8.59147V45.4303H16.7064ZM12.6506 17.6753C15.4795 17.6753 17.2404 15.8029 17.2404 13.4573C17.1897 11.061 15.4829 9.23929 12.7047 9.23929C9.92649 9.23929 8.11154 11.0644 8.11154 13.4573C8.11154 15.8029 9.87241 17.6753 12.5965 17.6753H12.6506ZM29.2387 45.4303V31.7927C29.2387 31.0627 29.2928 30.3327 29.5091 29.8122C30.0938 28.3555 31.4288 26.8447 33.673 26.8447C36.6101 26.8447 37.7829 29.0821 37.7829 32.3673V45.4303H45.8978V31.4243C45.8978 23.9212 41.8961 20.4332 36.556 20.4332C32.2501 20.4332 30.3202 22.7991 29.2387 24.4653V24.5498H29.1846C29.2026 24.5216 29.2206 24.4934 29.2387 24.4653V21.0112H21.1272C21.2286 23.3027 21.1272 45.4303 21.1272 45.4303H29.2387Z" fill="white" fill-opacity="0.95"/>
</g>
<defs>
<clipPath id="clip0_90_1085">
<rect width="54.0769" height="54.0769" fill="white" transform="translate(0 0.161133)"/>
</clipPath>
</defs>
</svg>
