<svg width="25" height="25" viewBox="0 0 25 25" fill="none" xmlns="http://www.w3.org/2000/svg">
<path d="M19.4907 13.0801C19.2707 13.0801 19.0407 13.0101 18.8207 12.9601C18.3756 12.8605 17.9379 12.7302 17.5107 12.5701C17.0468 12.4013 16.5369 12.4101 16.079 12.5947C15.6212 12.7793 15.2478 13.1267 15.0307 13.5701L14.8107 14.0301C13.8396 13.4793 12.9424 12.8072 12.1407 12.0301C11.3636 11.2285 10.6915 10.3313 10.1407 9.36008L10.6007 9.15008C11.0441 8.93299 11.3915 8.55961 11.5761 8.10177C11.7607 7.64393 11.7695 7.13399 11.6007 6.67008C11.4419 6.23911 11.3116 5.79816 11.2107 5.35008C11.1607 5.13008 11.1207 4.90008 11.0907 4.68008C10.9693 3.9757 10.6004 3.33782 10.0504 2.88132C9.50036 2.42481 8.80543 2.17969 8.09074 2.19008H5.08074C4.65799 2.18952 4.23989 2.27833 3.85386 2.45066C3.46782 2.623 3.12257 2.87498 2.84074 3.19008C2.55306 3.51373 2.33885 3.89583 2.21284 4.31011C2.08683 4.7244 2.052 5.16105 2.11074 5.59008C2.65433 9.75222 4.55595 13.6187 7.52074 16.5901C10.4921 19.5549 14.3586 21.4565 18.5207 22.0001C18.6505 22.01 18.7809 22.01 18.9107 22.0001C19.6482 22.0012 20.3601 21.7306 20.9107 21.2401C21.2258 20.9582 21.4778 20.613 21.6502 20.227C21.8225 19.8409 21.9113 19.4228 21.9107 19.0001V16.0001C21.9053 15.3091 21.6616 14.6412 21.2207 14.1092C20.7798 13.5772 20.1687 13.2136 19.4907 13.0801ZM19.9807 19.0801C19.9804 19.2196 19.9509 19.3576 19.894 19.485C19.8372 19.6124 19.7543 19.7266 19.6507 19.8201C19.5411 19.9199 19.4107 19.9942 19.2689 20.0374C19.1271 20.0806 18.9774 20.0918 18.8307 20.0701C15.099 19.5827 11.631 17.8821 8.96074 15.2301C6.28821 12.5575 4.57277 9.07745 4.08074 5.33008C4.05901 5.18341 4.07017 5.03375 4.11341 4.89193C4.15665 4.75011 4.23088 4.61968 4.33074 4.51008C4.42536 4.40523 4.54112 4.32161 4.67039 4.26473C4.79966 4.20785 4.93951 4.179 5.08074 4.18008H8.08074C8.3119 4.17443 8.53788 4.24906 8.7202 4.39128C8.90253 4.53349 9.02994 4.7345 9.08074 4.96008C9.08074 5.23008 9.17074 5.51008 9.23074 5.78008C9.34631 6.30394 9.50006 6.81865 9.69074 7.32008L8.29074 7.98008C8.0501 8.09054 7.8631 8.29193 7.77074 8.54008C7.67072 8.78354 7.67072 9.05662 7.77074 9.30008C9.20994 12.3828 11.688 14.8609 14.7707 16.3001C15.0142 16.4001 15.2873 16.4001 15.5307 16.3001C15.7789 16.2077 15.9803 16.0207 16.0907 15.7801L16.7207 14.3801C17.2366 14.5682 17.7645 14.7219 18.3007 14.8401C18.5607 14.9001 18.8407 14.9501 19.1107 14.9901C19.3363 15.0409 19.5373 15.1683 19.6795 15.3506C19.8218 15.5329 19.8964 15.7589 19.8907 15.9901L19.9807 19.0801ZM14.0807 2.08008C13.8507 2.08008 13.6107 2.08008 13.3807 2.08008C13.1155 2.10262 12.8701 2.2296 12.6985 2.43308C12.5269 2.63655 12.4432 2.89986 12.4657 3.16508C12.4883 3.43029 12.6153 3.67569 12.8187 3.84729C13.0222 4.01888 13.2855 4.10262 13.5507 4.08008H14.0807C15.672 4.08008 17.1982 4.71222 18.3234 5.83744C19.4486 6.96266 20.0807 8.48878 20.0807 10.0801C20.0807 10.2601 20.0807 10.4301 20.0807 10.6101C20.0586 10.8739 20.1419 11.1357 20.3125 11.3382C20.4831 11.5406 20.727 11.6672 20.9907 11.6901H21.0707C21.3211 11.6911 21.5627 11.5982 21.7478 11.4297C21.933 11.2612 22.0482 11.0294 22.0707 10.7801C22.0707 10.5501 22.0707 10.3101 22.0707 10.0801C22.0707 7.96008 21.2293 5.92676 19.7311 4.42676C18.233 2.92675 16.2007 2.08273 14.0807 2.08008ZM16.0807 10.0801C16.0807 10.3453 16.1861 10.5996 16.3736 10.7872C16.5612 10.9747 16.8155 11.0801 17.0807 11.0801C17.346 11.0801 17.6003 10.9747 17.7878 10.7872C17.9754 10.5996 18.0807 10.3453 18.0807 10.0801C18.0807 9.01921 17.6593 8.0018 16.9092 7.25165C16.159 6.50151 15.1416 6.08008 14.0807 6.08008C13.8155 6.08008 13.5612 6.18544 13.3736 6.37297C13.1861 6.56051 13.0807 6.81486 13.0807 7.08008C13.0807 7.34529 13.1861 7.59965 13.3736 7.78718C13.5612 7.97472 13.8155 8.08008 14.0807 8.08008C14.6112 8.08008 15.1199 8.29079 15.495 8.66586C15.87 9.04094 16.0807 9.54964 16.0807 10.0801Z" fill="white"/>
</svg>
