<svg width="55" height="55" viewBox="0 0 55 55" fill="none" xmlns="http://www.w3.org/2000/svg">
<g clip-path="url(#clip0_90_1089)">
<path d="M7.99432 3.54102C3.73334 3.54102 0.269043 6.57228 0.269043 10.3006V44.0987C0.269043 47.827 3.73334 50.8583 7.99432 50.8583H46.6207C50.8816 50.8583 54.3459 47.827 54.3459 44.0987V10.3006C54.3459 6.57228 50.8816 3.54102 46.6207 3.54102H7.99432ZM43.8565 12.413L31.327 24.9394L46.0654 41.9863H34.5258L25.4969 31.6462L15.1523 41.9863H9.41866L22.8172 28.5833L8.68235 12.413H20.5117L28.6836 21.8659L38.1229 12.413H43.8565ZM39.2937 38.9867L18.7856 15.2542H15.3695L36.1071 38.9867H39.2817H39.2937Z" fill="white" fill-opacity="0.95"/>
</g>
<defs>
<clipPath id="clip0_90_1089">
<rect width="54.0769" height="54.0769" fill="white" transform="translate(0.269043 0.161133)"/>
</clipPath>
</defs>
</svg>
