<svg width="129" height="39" viewBox="0 0 129 39" fill="none" xmlns="http://www.w3.org/2000/svg">
<rect width="39" height="39" rx="7.8" fill="#DA415D"/>
<path d="M31.8499 15.9252L28.1451 19.6306L26.1738 21.6013L19.4999 28.2752L12.826 21.6013L10.8553 19.6306L7.1499 15.9252L19.4999 3.5752L31.8499 15.9252Z" fill="#E29100"/>
<path d="M31.8499 23.3355L19.4999 35.6855L7.1499 23.3355L10.8553 19.6306L12.826 21.6013L11.0925 23.3355L17.9612 30.2048V22.7946L11.0925 15.9252L19.4999 7.51783L27.9079 15.9252L21.0392 22.794V30.2042L27.9079 23.3355L26.1738 21.6013L28.1451 19.6306L31.8499 23.3355Z" fill="#FEFEFE"/>
<path d="M20.8251 13.6303H18.1747L16.8501 15.9252L18.1747 18.2202H20.8251L22.1497 15.9252L20.8251 13.6303Z" fill="#E29100"/>
<path d="M53.1095 8.26855V23.8748C53.1095 27.6166 54.6914 29.3202 57.2468 29.3202C60.1065 29.3202 61.9013 26.704 61.9013 22.9013V8.26855H62.6619V23.2968C62.6619 27.3428 60.0152 30.6284 56.3646 30.7196H55.9995C51.8622 30.7196 48.668 27.86 48.668 24.0573V8.26855H53.1095Z" fill="white"/>
<path d="M70.455 29.4723V36.1042H66.0134V16.0869C66.8957 16.0869 67.9908 15.6001 68.8731 15.1438C69.3902 14.87 69.9378 14.5354 70.455 14.2007V18.3685C70.9417 16.0565 72.9191 14.2616 75.1399 14.1703H75.3833C76.9652 14.1703 78.5167 14.9613 79.6423 16.5128C80.7679 18.0643 81.3155 20.1025 81.3155 22.1712V22.5971C81.1634 26.6736 78.9426 29.9591 75.9004 30.5979C75.4745 30.6892 75.0486 30.75 74.5923 30.75C73.6188 30.75 72.0369 30.4762 70.455 29.4723ZM70.455 18.6119V25.1525C71.3372 26.704 72.7974 27.9817 74.2577 28.7118C75.7179 29.4419 76.4784 29.3811 76.6914 29.3811C77.2086 29.3811 77.6649 29.2594 78.0299 28.9856C78.8513 28.4076 79.0034 27.282 79.0034 26.3998C79.0034 25.8826 78.973 24.8483 78.3342 23.1447C77.9995 22.2929 77.5736 21.5019 77.026 20.7414C75.4137 18.4293 73.3755 17.7601 72.3715 17.7601C71.9761 17.7601 71.1547 17.7601 70.455 18.6119Z" fill="white"/>
<path d="M88.4598 24.4224C89.8287 26.491 91.8974 27.4341 93.0838 27.5558C93.6618 27.6166 94.0877 27.647 94.3007 27.647C95.6392 27.647 97.282 27.1907 98.5293 26.3085C96.9778 29.4419 94.5441 30.7196 91.2585 30.7196C86.7866 30.7196 83.3185 26.9778 83.3185 22.5971C83.3185 18.186 86.8474 14.2312 91.289 14.2312C93.4489 14.2312 95.3959 15.1438 96.8561 16.6953L93.9356 19.2203C93.2968 17.6688 92.4146 16.5736 91.5019 15.8739C90.5893 15.1742 89.8896 15.1134 89.4941 15.1134C89.2507 15.1134 89.0378 15.1438 88.8248 15.2047C88.2468 15.3872 87.7905 15.8131 87.4559 16.4519C87.1212 17.1212 86.9691 17.6992 86.9387 18.186C86.9083 18.7031 86.9083 18.9769 86.9083 19.0682C86.9083 20.6805 87.3646 22.6883 88.4598 24.4224Z" fill="white"/>
<path d="M110.36 26.9169V14.1399C110.877 14.3224 111.425 14.4745 111.942 14.5962C112.824 14.8396 113.95 15.083 114.802 15.083V30.4154H110.36V27.4341C109.873 29.4723 107.561 31.0847 105.158 31.1759H104.945C102.603 31.1759 100.564 29.7461 100.564 26.4302V14.1399C101.082 14.3224 101.599 14.4745 102.116 14.5962C103.059 14.8396 104.124 15.083 105.006 15.083V26.0651C105.006 27.9208 106.162 28.4988 107.227 28.4988C107.318 28.4988 107.805 28.5293 108.596 28.2555C109.387 27.9817 110.086 27.4949 110.36 26.9169Z" fill="white"/>
<path d="M123.424 15.1438V25.3654C123.454 26.3693 123.637 26.9778 124.002 27.2211C124.337 27.4949 124.702 27.6166 125.036 27.6166C125.31 27.6166 126.071 27.5254 127.075 26.7648C127.592 26.3693 127.926 26.0043 128.139 25.6392C127.987 27.9513 125.523 30.7196 123.454 30.7196C120.838 30.7196 119.013 29.4419 119.013 26.0651V15.1438H116.731V14.5962H119.013C121.355 14.5962 121.69 11.2194 123.424 11.2194V14.5962H126.983V15.1438H123.424Z" fill="white"/>
</svg>
